<?xml version="1.0" encoding="utf-8"?>
<svg viewBox="0 0 64 64" width="64px" height="64px" xmlns="http://www.w3.org/2000/svg">
  <circle id="Background" cx="42.418" cy="42.344" r="21.544" style="fill: rgb(250, 215, 201);"
    transform="matrix(0.9999999999999999, 0, 0, 0.9999999999999999, -1.7763568394002505e-15, 0)" />
  <path
    d="M 27.675 56.444 C 23.902 56.444 20.356 55.728 17.038 54.296 C 13.719 52.864 10.833 50.921 8.378 48.466 C 5.923 46.011 3.98 43.125 2.548 39.806 C 1.116 36.488 0.4 32.942 0.4 29.17 C 0.4 25.397 1.116 21.851 2.548 18.533 C 3.98 15.215 5.923 12.328 8.378 9.873 C 10.833 7.418 13.719 5.475 17.038 4.043 C 20.356 2.611 23.902 1.895 27.675 1.895 C 31.447 1.895 34.993 2.611 38.311 4.043 C 41.63 5.475 44.516 7.418 46.971 9.873 C 49.426 12.328 51.369 15.215 52.801 18.533 C 54.233 21.851 54.949 25.397 54.949 29.17 C 54.949 32.942 54.233 36.488 52.801 39.806 C 51.369 43.125 49.426 46.011 46.971 48.466 C 44.516 50.921 41.63 52.864 38.311 54.296 C 34.993 55.728 31.447 56.444 27.675 56.444 Z M 27.675 50.989 C 33.766 50.989 38.925 48.875 43.153 44.648 C 47.38 40.42 49.494 35.261 49.494 29.17 C 49.494 23.079 47.38 17.919 43.153 13.691 C 38.925 9.464 33.766 7.35 27.675 7.35 C 21.584 7.35 16.424 9.464 12.196 13.691 C 7.969 17.919 5.855 23.079 5.855 29.17 C 5.855 35.261 7.969 40.42 12.196 44.648 C 16.424 48.875 21.584 50.989 27.675 50.989 Z M 27.675 29.17 Z M 19.492 42.807 L 35.857 42.807 L 35.857 37.352 L 24.947 37.352 L 24.947 31.897 L 30.402 31.897 C 31.902 31.897 33.186 31.363 34.255 30.295 C 35.323 29.226 35.857 27.942 35.857 26.442 L 35.857 20.987 C 35.857 19.487 35.323 18.203 34.255 17.135 C 33.186 16.067 31.902 15.532 30.402 15.532 L 19.492 15.532 L 19.492 20.987 L 30.402 20.987 L 30.402 26.442 L 24.947 26.442 C 23.447 26.442 22.163 26.976 21.094 28.044 C 20.027 29.113 19.492 30.397 19.492 31.897 L 19.492 42.807 Z"
    style="fill: rgb(57, 57, 57);"
    transform="matrix(0.9999999999999999, 0, 0, 0.9999999999999999, -1.7763568394002505e-15, 0)" />
</svg>