<?xml version="1.0" encoding="utf-8"?>
<svg viewBox="0 0 64 64" width="64px" height="64px" xmlns="http://www.w3.org/2000/svg">
  <circle id="Background" cx="42.418" cy="42.344" r="21.544" style="fill: rgb(245, 201, 233);" />
  <path
    d="M 27.916 56.444 C 24.109 56.444 20.532 55.722 17.184 54.277 C 13.837 52.833 10.925 50.872 8.449 48.396 C 5.972 45.92 4.012 43.007 2.567 39.66 C 1.123 36.312 0.4 32.735 0.4 28.929 C 0.4 25.122 1.123 21.545 2.567 18.197 C 4.012 14.85 5.972 11.938 8.449 9.462 C 10.925 6.985 13.837 5.026 17.184 3.58 C 20.532 2.136 24.109 1.413 27.916 1.413 C 31.722 1.413 35.299 2.136 38.647 3.58 C 41.994 5.026 44.907 6.985 47.383 9.462 C 49.859 11.938 51.82 14.85 53.264 18.197 C 54.709 21.545 55.431 25.122 55.431 28.929 C 55.431 32.735 54.709 36.312 53.264 39.66 C 51.82 43.007 49.859 45.92 47.383 48.396 C 44.907 50.872 41.994 52.833 38.647 54.277 C 35.299 55.722 31.722 56.444 27.916 56.444 Z M 27.916 50.942 C 34.061 50.942 39.265 48.808 43.531 44.544 C 47.795 40.278 49.927 35.074 49.927 28.929 C 49.927 22.783 47.795 17.579 43.531 13.314 C 39.265 9.049 34.061 6.917 27.916 6.917 C 21.77 6.917 16.566 9.049 12.301 13.314 C 8.036 17.579 5.903 22.783 5.903 28.929 C 5.903 35.074 8.036 40.278 12.301 44.544 C 16.566 48.808 21.77 50.942 27.916 50.942 Z M 27.916 28.929 Z M 19.661 42.686 L 30.667 42.686 C 32.18 42.686 33.476 42.148 34.554 41.07 C 35.632 39.992 36.171 38.697 36.171 37.184 L 36.171 33.056 C 36.171 31.863 35.781 30.877 35.001 30.098 C 34.221 29.319 33.235 28.929 32.043 28.929 C 33.235 28.929 34.221 28.539 35.001 27.76 C 35.781 26.98 36.171 25.994 36.171 24.802 L 36.171 20.675 C 36.171 19.161 35.632 17.866 34.554 16.788 C 33.476 15.71 32.18 15.171 30.667 15.171 L 19.661 15.171 L 19.661 20.675 L 30.667 20.675 L 30.667 26.178 L 25.165 26.178 L 25.165 31.68 L 30.667 31.68 L 30.667 37.184 L 19.661 37.184 L 19.661 42.686 Z"
    style="fill: rgb(57, 57, 57);" />
</svg>