<?xml version="1.0" encoding="utf-8"?>
<svg viewBox="0 0 64 64" width="64px" height="64px" xmlns="http://www.w3.org/2000/svg">
  <circle id="Background" cx="42.418" cy="42.344" r="21.544" fill="#B1E8F2" style="" />
  <path
    d="M 27.9 56.352 C 24.095 56.352 20.522 55.63 17.174 54.186 C 13.828 52.742 10.919 50.782 8.444 48.308 C 5.97 45.833 4.01 42.924 2.566 39.578 C 1.122 36.232 0.4 32.657 0.4 28.852 C 0.4 25.048 1.122 21.474 2.566 18.128 C 4.01 14.78 5.97 11.871 8.444 9.396 C 10.919 6.922 13.828 4.962 17.174 3.518 C 20.522 2.074 24.095 1.352 27.9 1.352 C 31.704 1.352 35.278 2.074 38.624 3.518 C 41.972 4.962 44.881 6.922 47.356 9.396 C 49.83 11.871 51.79 14.78 53.234 18.128 C 54.678 21.474 55.4 25.048 55.4 28.852 C 55.4 32.657 54.678 36.232 53.234 39.578 C 51.79 42.924 49.83 45.833 47.356 48.308 C 44.881 50.782 41.972 52.742 38.624 54.186 C 35.278 55.63 31.704 56.352 27.9 56.352 Z M 27.9 50.853 C 34.041 50.853 39.243 48.72 43.506 44.458 C 47.768 40.195 49.899 34.993 49.899 28.852 C 49.899 22.711 47.768 17.509 43.506 13.246 C 39.243 8.984 34.041 6.853 27.9 6.853 C 21.759 6.853 16.557 8.984 12.294 13.246 C 8.032 17.509 5.899 22.711 5.899 28.852 C 5.899 34.993 8.032 40.195 12.294 44.458 C 16.557 48.72 21.759 50.853 27.9 50.853 Z M 27.9 28.852 Z M 26.525 42.601 L 32.025 42.601 L 32.025 15.101 L 21.024 15.101 L 21.024 20.603 L 26.525 20.603 L 26.525 42.601 Z"
    style="fill: rgb(57, 57, 57);" />
</svg>